Coordinates
version=1
nRows=54
nColumns=12
inDegrees=yes

Units are S.I. units (second, meters, Newtons, ...)
Angles are in degrees

endheader
time	SC_y	SC_z	SC_x	AC_y	AC_z	AC_x	GH_y	GH_z	GH_yy	EL_x	PS_y
       0.0               -29.1          28.96          20.73          33.33         0.8347         -14.47          177.2         -5.229         -85.22          57.06          51.55
   0.01996               -29.1          28.96          20.73          33.34         0.8327         -14.47          177.2          -5.23         -85.22          57.05          51.55
   0.03993              -29.11          28.95          20.74          33.34         0.8307         -14.47          177.1         -5.232         -85.22          57.04          51.55
   0.05989              -29.11          28.95          20.75          33.35         0.8285         -14.47          177.1         -5.233         -85.23          57.04          51.56
   0.07986              -29.11          28.95          20.76          33.35         0.8261         -14.47          177.0         -5.235         -85.23          57.03          51.56
   0.09982              -29.12          28.94          20.77          33.36         0.8236         -14.47          177.0         -5.237         -85.23          57.02          51.57
    0.1198              -29.13          28.94          20.78          33.37         0.8209         -14.47          176.9         -5.239         -85.23          57.01          51.57
    0.1398              -29.13          28.93          20.79          33.37         0.8181         -14.47          176.9         -5.241         -85.23           57.0          51.57
    0.1597              -29.14          28.93           20.8          33.38          0.815         -14.47          176.8         -5.243         -85.24          56.99          51.58
    0.1797              -29.14          28.92          20.81          33.39         0.8118         -14.47          176.8         -5.245         -85.24          56.97          51.58
    0.1996              -29.15          28.92          20.82           33.4         0.8082         -14.47          176.7         -5.248         -85.24          56.96          51.59
    0.2196              -29.16          28.91          20.83          33.41         0.8044         -14.47          176.6          -5.25         -85.25          56.95          51.59
    0.2396              -29.17           28.9          20.85          33.42         0.8004         -14.47          176.6         -5.253         -85.25          56.93           51.6
    0.2595              -29.18           28.9          20.86          33.43          0.796         -14.47          176.5         -5.257         -85.25          56.92          51.61
    0.2795              -29.19          28.89          20.88          33.44         0.7912         -14.47          176.4          -5.26         -85.26           56.9          51.62
    0.2995               -29.2          28.88           20.9          33.45          0.786         -14.47          176.3         -5.264         -85.26          56.88          51.62
    0.3194              -29.21          28.87          20.92          33.47         0.7804         -14.47          176.2         -5.268         -85.27          56.86          51.63
    0.3394              -29.22          28.86          20.94          33.48         0.7742         -14.47          176.1         -5.272         -85.27          56.84          51.64
    0.3594              -29.24          28.85          20.97           33.5         0.7675         -14.47          175.9         -5.277         -85.28          56.81          51.65
    0.3793              -29.25          28.84          20.99          33.52         0.7602         -14.47          175.8         -5.282         -85.29          56.78          51.66
    0.3993              -29.27          28.83          21.02          33.54         0.7522         -14.47          175.6         -5.288         -85.29          56.76          51.68
    0.4193              -29.29          28.81          21.05          33.56         0.7433         -14.47          175.5         -5.294          -85.3          56.72          51.69
    0.4392              -29.31           28.8          21.09          33.58         0.7335         -14.46          175.3         -5.301         -85.31          56.69           51.7
    0.4592              -29.33          28.78          21.12          33.61         0.7227         -14.46          175.1         -5.309         -85.32          56.65          51.72
    0.4791              -29.35          28.76          21.17          33.64         0.7106         -14.46          174.8         -5.318         -85.33           56.6          51.74
    0.4991              -29.38          28.74          21.21          33.67         0.6972         -14.46          174.6         -5.327         -85.34          56.55          51.76
    0.5191              -29.41          28.72          21.27          33.71         0.6821         -14.46          174.3         -5.338         -85.35           56.5          51.78
     0.539              -29.45          28.69          21.33          33.75         0.6652         -14.46          174.0          -5.35         -85.37          56.43          51.81
     0.559              -29.49          28.66           21.4           33.8          0.646         -14.46          173.6         -5.364         -85.38          56.36          51.84
     0.579              -29.53          28.63          21.47          33.86         0.6243         -14.46          173.2          -5.38          -85.4          56.28          51.87
    0.5989              -29.58          28.59          21.56          33.92         0.5995         -14.46          172.7         -5.398         -85.43          56.19          51.91
    0.6189              -29.64          28.54          21.66          33.99          0.571         -14.46          172.2         -5.418         -85.45          56.09          51.96
    0.6389              -29.71          28.49          21.78          34.07         0.5381         -14.46          171.6         -5.442         -85.48          55.97          52.01
    0.6588              -29.79          28.43          21.91          34.17         0.4999         -14.45          170.8         -5.469         -85.51          55.82          52.07
    0.6788              -29.88          28.36          22.07          34.28         0.4552         -14.45          170.0         -5.501         -85.55          55.66          52.14
    0.6988              -29.99          28.27          22.26          34.41         0.4025         -14.45          169.0         -5.539          -85.6          55.47          52.22
    0.7187              -30.12          28.17          22.48          34.56         0.3399         -14.44          167.8         -5.584         -85.65          55.23          52.31
    0.7387              -30.27          28.06          22.75          34.75         0.2649         -14.44          166.3         -5.638         -85.72          54.96          52.43
    0.7586              -30.46          27.91          23.07          34.98         0.1741         -14.44          164.6         -5.703          -85.8          54.62          52.57
    0.7786              -30.69          27.74          23.46          35.25        0.06314         -14.43          162.5         -5.782         -85.89          54.21          52.74
    0.7986              -30.97          27.52          23.95          35.59       -0.07376         -14.42          159.9         -5.881         -86.01          53.71          52.96
    0.8185              -31.32          27.25          24.55          36.02        -0.2445         -14.42          156.6         -6.003         -86.16          53.08          53.22
    0.8385              -31.77          26.91          25.31          36.56        -0.4595          -14.4          152.5         -6.158         -86.35          52.29          53.55
    0.8585              -32.33          26.47          26.28          37.24        -0.7329         -14.39          147.3         -6.354         -86.58          51.28          53.98
    0.8784              -33.05          25.92          27.52          38.11         -1.083         -14.37          140.6         -6.605         -86.89          49.99          54.52
    0.8984              -33.98          25.21          29.11          39.23         -1.532         -14.35          132.1         -6.927         -87.28          48.33          55.22
    0.9184              -35.16           24.3          31.15          40.66         -2.106         -14.32          121.2         -7.339         -87.78          46.21           56.1
    0.9383              -36.65          23.16           33.7          42.45         -2.827         -14.28          107.4         -7.857         -88.41          43.55          57.22
    0.9583              -38.46          21.76          36.82          44.64         -3.706         -14.24          90.64         -8.487         -89.17          40.31          58.58
    0.9783              -40.56          20.15          40.43          47.18         -4.724         -14.19          71.22         -9.219         -90.06          36.55          60.16
    0.9982              -42.83           18.4          44.34          49.93         -5.828         -14.13          50.19         -10.01         -91.02          32.49          61.87
     1.018              -45.11          16.65          48.25          52.67         -6.931         -14.07          29.16          -10.8         -91.98          28.42          63.58
     1.038              -47.21          15.03          51.86          55.21          -7.95         -14.02          9.734         -11.53         -92.87          24.66          65.16
     1.058              -49.02          13.64          54.97           57.4         -8.828         -13.98         -7.022         -12.16         -93.63          21.42          66.52
